<svg width="32" height="26" viewBox="0 0 32 26" fill="none" xmlns="http://www.w3.org/2000/svg">
<path d="M10.1999 10.3166L16 16.7666L21.8001 10.3166M1.86454 7.71228L7.67402 1.48163C7.81954 1.32842 7.99549 1.20657 8.19086 1.1237C8.38622 1.04083 8.59679 0.998729 8.80938 1.00003H23.1906C23.4032 0.998729 23.6138 1.04083 23.8091 1.1237C24.0045 1.20657 24.1805 1.32842 24.326 1.48163L30.1355 7.71228C30.3739 7.96276 30.5046 8.29505 30.4999 8.63898C30.4951 8.98291 30.3554 9.31157 30.1101 9.55554L16.5438 24.7574C16.4757 24.8336 16.392 24.8947 16.2983 24.9365C16.2045 24.9784 16.1029 25 16 25C15.8971 25 15.7955 24.9784 15.7017 24.9365C15.608 24.8947 15.5243 24.8336 15.4562 24.7574L1.88992 9.55554C1.64463 9.31157 1.50486 8.98291 1.50012 8.63898C1.49539 8.29505 1.62606 7.96276 1.86454 7.71228Z" stroke="#909090" stroke-width="1.5" stroke-linecap="round" stroke-linejoin="round"/>
</svg>
