<svg width="30" height="26" viewBox="0 0 30 26" fill="none" xmlns="http://www.w3.org/2000/svg">
<path d="M23.5882 19.3529H19.3529M1 13C1 7.34306 1 4.51529 2.65459 2.75765C4.30918 1 6.97035 1 12.2941 1H17.9412C23.2649 1 25.9275 1 27.5807 2.75765C29.2339 4.51529 29.2353 7.34306 29.2353 13C29.2353 18.6569 29.2353 21.4847 27.5807 23.2424C25.9261 25 23.2649 25 17.9412 25H12.2941C6.97035 25 4.30776 25 2.65459 23.2424C1.00141 21.4847 1 18.6569 1 13ZM7.90071 11.3496C9.22635 10.576 10.3826 10.888 11.0772 11.3849C11.3624 11.5882 11.5049 11.6899 11.5882 11.6899C11.6729 11.6899 11.8141 11.5882 12.0993 11.3849C12.7939 10.888 13.9501 10.576 15.2758 11.3496C17.0151 12.3661 17.4075 15.7176 13.3981 18.5454C12.6329 19.0833 12.2504 19.3529 11.5882 19.3529C10.9261 19.3529 10.5435 19.0847 9.77976 18.5454C5.76894 15.7176 6.16 12.3661 7.90071 11.3496Z" stroke="#909090" stroke-width="1.5" stroke-linecap="round" stroke-linejoin="round"/>
</svg>
