<svg width="16" height="16" viewBox="0 0 16 16" fill="none" xmlns="http://www.w3.org/2000/svg">
<path d="M11.8392 9.19382C11.808 9.17886 10.6416 8.60447 10.4343 8.52987C10.3497 8.49948 10.259 8.46982 10.1626 8.46982C10.0051 8.46982 9.87279 8.54831 9.76972 8.70249C9.6532 8.87569 9.30048 9.288 9.19149 9.41117C9.17725 9.42743 9.15783 9.44686 9.14619 9.44686C9.13575 9.44686 8.95523 9.37252 8.90058 9.34878C7.6493 8.80525 6.69954 7.49818 6.5693 7.27777C6.55071 7.24608 6.54993 7.23169 6.54977 7.23169C6.55434 7.21491 6.59642 7.17273 6.61814 7.15096C6.68167 7.0881 6.7505 7.00525 6.8171 6.92509C6.84863 6.88712 6.88021 6.84909 6.91123 6.81325C7.00785 6.70083 7.05086 6.61356 7.10073 6.51247L7.12686 6.45995C7.24863 6.21803 7.14463 6.01387 7.11102 5.94795C7.08343 5.89278 6.59091 4.7041 6.53855 4.57922C6.41263 4.27787 6.24624 4.13756 6.01502 4.13756C5.99356 4.13756 6.01502 4.13756 5.92504 4.14135C5.81549 4.14597 5.21886 4.22452 4.95507 4.39081C4.67533 4.56717 4.20208 5.12935 4.20208 6.11803C4.20208 7.00784 4.76676 7.848 5.0092 8.16753C5.01523 8.17558 5.02629 8.19195 5.04234 8.21543C5.97081 9.57138 7.12827 10.5763 8.30162 11.045C9.43123 11.4962 9.96614 11.5484 10.2702 11.5484H10.2703C10.3981 11.5484 10.5004 11.5383 10.5906 11.5295L10.6479 11.524C11.0381 11.4894 11.8956 11.045 12.0907 10.503C12.2444 10.076 12.2849 9.60951 12.1827 9.44021C12.1126 9.32509 11.992 9.26717 11.8392 9.19382Z" fill="white"/>
<path d="M8.14202 0C3.80872 0 0.283313 3.49891 0.283313 7.79964C0.283313 9.19065 0.655573 10.5523 1.36077 11.7439L0.0110009 15.7255C-0.0141419 15.7997 0.00455937 15.8818 0.0594685 15.9377C0.0991049 15.9782 0.152871 16 0.20778 16C0.228819 16 0.250014 15.9968 0.270689 15.9902L4.42238 14.671C5.55849 15.278 6.84254 15.5984 8.14207 15.5984C12.475 15.5984 16 12.0999 16 7.79964C16 3.49891 12.475 0 8.14202 0ZM8.14202 13.9737C6.91921 13.9737 5.73485 13.6206 4.71677 12.9526C4.68254 12.9301 4.6428 12.9185 4.6028 12.9185C4.58165 12.9185 4.56046 12.9218 4.53984 12.9283L2.46009 13.5894L3.13147 11.6087C3.15319 11.5446 3.14233 11.4739 3.10233 11.4192C2.32705 10.3599 1.91724 9.10831 1.91724 7.79964C1.91724 4.39481 4.70965 1.62473 8.14197 1.62473C11.5739 1.62473 14.366 4.39481 14.366 7.79964C14.366 11.2041 11.574 13.9737 8.14202 13.9737Z" fill="white"/>
</svg>
