<svg width="17" height="24" viewBox="0 0 17 24" fill="none" xmlns="http://www.w3.org/2000/svg">
<path d="M0 20.3497V6.71157C0 6.09178 0.221667 5.56133 0.665 5.12022C1.10833 4.67911 1.64033 4.45809 2.261 4.45716H5.4656V1.07486C5.4656 0.786367 5.57293 0.535102 5.7876 0.321061C6.00227 0.107021 6.2538 0 6.5422 0H10.2578C10.5471 0 10.7991 0.107021 11.0138 0.321061C11.2285 0.535102 11.3358 0.786367 11.3358 1.07486V4.45716H14.539C15.1606 4.45716 15.6926 4.67818 16.135 5.12022C16.5774 5.56226 16.7991 6.09271 16.8 6.71157V20.3497C16.8 20.9695 16.5783 21.4999 16.135 21.941C15.6917 22.3821 15.1597 22.6032 14.539 22.6041V23.302C14.539 23.5003 14.4709 23.6659 14.3346 23.799C14.1983 23.9321 14.0303 23.9991 13.8306 24C13.6421 24 13.4946 23.9256 13.3882 23.7767C13.2809 23.6268 13.1973 23.4686 13.1376 23.302V22.6041H3.6624V23.302C3.6624 23.5003 3.59427 23.6659 3.458 23.799C3.32267 23.933 3.15467 24 2.954 24C2.76547 24 2.61753 23.9256 2.5102 23.7767C2.4038 23.6268 2.3212 23.4686 2.2624 23.302V22.6041C1.63987 22.6041 1.1074 22.3831 0.665 21.941C0.2226 21.499 0.000933333 20.9676 0 20.3497ZM6.8656 4.45716H9.9344V1.39731H6.8656V4.45716ZM8.4 11.9742C9.63667 11.9742 10.8444 11.8169 12.0232 11.5024C13.202 11.1878 14.3276 10.7169 15.4 10.0897V6.71157C15.4 6.46123 15.3193 6.25557 15.1578 6.09457C14.9963 5.93358 14.7901 5.85308 14.539 5.85308H2.261C2.00993 5.85308 1.80367 5.93358 1.6422 6.09457C1.48073 6.25557 1.4 6.4617 1.4 6.71296V10.0897C2.47333 10.7178 3.5994 11.1887 4.7782 11.5024C5.957 11.816 7.16427 11.9732 8.4 11.9742ZM7.7 14.068V13.3533C6.59493 13.2733 5.51693 13.0988 4.466 12.8299C3.41507 12.5609 2.39307 12.1752 1.4 11.6727V20.3497C1.4 20.6 1.48073 20.8057 1.6422 20.9667C1.80367 21.1277 2.0104 21.2082 2.2624 21.2082H14.539C14.7901 21.2082 14.9963 21.1277 15.1578 20.9667C15.3193 20.8057 15.4 20.6 15.4 20.3497V11.6727C14.406 12.1752 13.384 12.5609 12.334 12.8299C11.284 13.0988 10.206 13.2733 9.1 13.3533V14.068C9.1 14.2653 9.0328 14.431 8.8984 14.565C8.764 14.699 8.5974 14.7655 8.3986 14.7646C8.1998 14.7637 8.03367 14.6971 7.9002 14.565C7.76673 14.4328 7.7 14.2667 7.7 14.0667" fill="#909090"/>
</svg>
