<svg width="26" height="26" viewBox="0 0 26 26" fill="none" xmlns="http://www.w3.org/2000/svg">
<path d="M15.4946 9.87562C15.3505 9.45626 15.0848 9.09322 14.7338 8.8362C14.3828 8.57919 13.9636 8.44075 13.5337 8.43985H11.9239C11.4647 8.43736 11.0209 8.61125 10.6783 8.92789C10.3357 9.24453 10.1187 9.68143 10.0693 10.1541C10.0198 10.6268 10.1414 11.1016 10.4106 11.4869C10.6797 11.8721 11.0773 12.1403 11.5264 12.2397L13.9775 12.7933C14.4787 12.9069 14.9217 13.2082 15.2213 13.6394C15.521 14.0705 15.6561 14.6011 15.6009 15.1292C15.5456 15.6572 15.3038 16.1455 14.9219 16.5002C14.54 16.8549 14.0449 17.051 13.5319 17.0508H12.1468C11.2412 17.0508 10.4711 16.4529 10.1858 15.6169M12.8402 8.43985V6.28619M12.8402 19.2045V17.0526M4.16941 24.9918V20.3782H8.62602M24.4738 10.7928C24.947 13.4045 24.5692 16.105 23.3996 18.4704C22.2299 20.8358 20.3348 22.7322 18.0115 23.8619C15.6882 24.9916 13.0683 25.2908 10.563 24.7124C8.0577 24.1339 5.80885 22.7107 4.16941 20.6661M1.69866 15.2072C1.22541 12.5955 1.60324 9.89497 2.77286 7.52959C3.94248 5.16421 5.83766 3.26783 8.16096 2.13809C10.4843 1.00836 13.1042 0.709224 15.6094 1.28764C18.1147 1.86606 20.3636 3.28928 22.003 5.33393M22.003 1.00815V5.62182H17.5464" stroke="#909090" stroke-width="1.5" stroke-linecap="round" stroke-linejoin="round"/>
</svg>
